<?xml version="1.0" encoding="UTF-8"?>
<svg id="_レイヤー_1" data-name="レイヤー 1" xmlns="http://www.w3.org/2000/svg" xmlns:xlink="http://www.w3.org/1999/xlink" viewBox="0 0 400 225">
  <defs>
    <style>
      .cls-1 {
        fill: #231815;
      }

      .cls-2 {
        fill: #fff;
      }

      .cls-3 {
        fill: url(#_名称未設定グラデーション_32);
      }
    </style>
    <linearGradient id="_名称未設定グラデーション_32" data-name="名称未設定グラデーション 32" x1="166.98" y1="140.66" x2="266.12" y2="41.52" gradientUnits="userSpaceOnUse">
      <stop offset=".21" stop-color="#218d49"/>
      <stop offset=".47" stop-color="#367770"/>
      <stop offset=".92" stop-color="#004299"/>
    </linearGradient>
  </defs>
  <rect class="cls-2" x="-.56" width="400" height="225"/>
  <path class="cls-3" d="M248.12,30.21c-7.75,0-14.43,5.52-15.87,13.1-.72,3.23-.34,7.11.1,11.61.56,5.71,1.25,12.81-.2,20.86-1.82,10.15-5.15,22.27-14.82,25.98-3.55,1.36-7.79,1.03-11.08-.88-6.4-3.71-6.63-12.71-5.82-16.75,1.23-6.14-1.6-12.36-6.89-15.12-2.97-1.55-6.21-2.03-9.36-1.39-2.58.51-4.77,1.65-6.68,3.48-3.86,3.7-5.27,9.36-3.7,14.79,3.22,11.09-.68,17.7-11.57,21.08-6.93,2.16-11.15,9.3-9.61,16.25.92,4.14,3.63,7.58,7.42,9.45s8.18,1.89,12.05.08c6.13-2.87,9.23-10.09,7.21-16.79-1.6-5.32-1.72-9.5-.36-12.74.08-.17.15-.34.26-.53l.07-.14c1.78-3.26,5.19-5.29,8.9-5.29,2.96,0,5.77,1.3,7.71,3.56,3.18,3.72,2.63,9.15,1.87,13.94-1.56,9.85,4.28,19.87,13.59,23.31,2.36.87,4.79,1.29,7.2,1.29,7.56,0,14.85-4.1,18.6-11.05,4.21-7.8,1.84-13.63-.67-19.8-1.15-2.83-2.34-5.76-2.92-9-.62-3.42-.03-7.39,1.74-11.8,2.99-7.44,8.05-13.62,12.61-18.68,1.63-1.82,3.58-3.48,5.64-5.23,4.64-3.96,9.45-8.05,10.42-14.09v-.02c.23-1.09.34-2.2.34-3.29,0-8.92-7.26-16.17-16.17-16.17Z"/>
  <path class="cls-1" d="M225.37,170.34c-1.2,7.82-5.87,12.39-13.44,14.45-.3.08-.63-.05-.8-.31l-1.37-2.16c-.26-.41-.05-.97.43-1.08,2.2-.54,4.36-1.37,6.22-2.68,1.67-1.19,2.75-2.53,3.56-4.28.22-.48-.13-1.03-.66-1.03h-13.6c-.4,0-.72-.32-.72-.72v-2.28c0-.4.32-.72.72-.72h18.95c.44,0,.78.39.72.82ZM223.1,164.68v2.33c0,.4-.32.72-.72.72h-14.31c-.4,0-.72-.32-.72-.72v-2.33c0-.4.32-.72.72-.72h14.31c.4,0,.72.32.72.72Z"/>
  <path class="cls-1" d="M229.86,179.61c1.74-2.04,3.12-4.18,4.23-6.6.17-.37.61-.53.97-.35l2.19,1.08c.35.17.5.59.35.94-1.18,2.69-2.64,5.07-4.51,7.34-.24.29-.66.34-.97.13l-2.12-1.47c-.35-.24-.41-.74-.13-1.06ZM251.19,168.13v2.3c0,.4-.32.72-.72.72h-6.8c-.4,0-.72.32-.72.72v9.13c0,3.36-2.15,3.63-5.41,3.65-.33,0-.62-.23-.7-.55l-.59-2.44c-.11-.46.24-.9.71-.89.29,0,.57.01.86.01.84,0,1.17-.05,1.17-.92v-7.99c0-.4-.32-.72-.72-.72h-7.29c-.4,0-.72-.32-.72-.72v-2.3c0-.4.32-.72.72-.72h7.29c.4,0,.72-.32.72-.72v-2.83c0-.4.32-.72.72-.72h2.53c.4,0,.72.32.72.72v2.83c0,.4.32.72.72.72h6.8c.4,0,.72.32.72.72ZM251.38,180.53l-2.25,1.39c-.37.23-.85.08-1.03-.31-1.13-2.41-2.24-4.45-3.73-6.68-.23-.34-.13-.8.22-1.02l2.05-1.26c.33-.2.75-.11.97.2,1.58,2.28,2.79,4.27,4.03,6.74.17.33.05.74-.27.94ZM246.63,161.97c.84.97,1.49,1.95,2.14,3.06.19.33.1.75-.21.96l-.56.38c-.43.3-.92.17-1.12-.2-.59-1.09-1.13-1.91-1.91-2.88-.26-.33-.19-.81.15-1.05l.57-.39c.3-.2.71-.16.94.11ZM250.88,161.92c.81,1.03,1.4,2.04,2.01,3.17.19.35.07.78-.28.97l-.67.38c-.36.21-.83.06-1.01-.32-.55-1.14-1.03-1.91-1.79-2.94-.25-.34-.16-.81.19-1.04l.59-.38c.31-.2.72-.14.95.15Z"/>
  <g>
    <path class="cls-1" d="M157.34,162.37h-5.29c-.56,0-1.01.45-1.01,1.01v9.73c0,3.06-.13,5.62-1.1,8.47-.12.35-.05.73.19,1.01l1.09,1.23c.52.59,1.47.38,1.73-.36.59-1.74.86-3.46.99-5.34.03-.37.33-.67.71-.67h.19c.39,0,.71.32.71.71v2.49c0,.73-.07.86-.66.86h-.13c-.64,0-1.12.59-.99,1.22l.31,1.52c.1.47.51.81.99.81h1.08c1.54,0,2.2-.76,2.2-2.28v-19.4c0-.56-.45-1.01-1.01-1.01ZM155.54,173.53c0,.39-.32.71-.71.71h-.02c-.39,0-.71-.32-.71-.71v-1.32c0-.39.32-.71.71-.71h.02c.39,0,.71.32.71.71v1.32ZM155.54,167.63c0,.39-.32.71-.71.71h-.02c-.39,0-.71-.32-.71-.71v-1.12c0-.39.32-.71.71-.71h.02c.39,0,.71.32.71.71v1.12Z"/>
    <path class="cls-1" d="M164.55,166.9c.05.46.45.79.91.73l1.68-.21c.44-.06.76-.46.7-.91-.17-1.31-.5-2.86-.92-4.1-.13-.38-.51-.61-.9-.54-.47.08-1.1.18-1.62.27s-.8.55-.65,1.03c.39,1.21.65,2.48.79,3.73Z"/>
    <path class="cls-1" d="M168.62,168.55l1.59.62c.38.15.81,0,1.01-.36.87-1.56,1.57-3.16,2.23-4.83.17-.43-.06-.92-.5-1.07-.54-.18-1.25-.41-1.78-.59-.42-.14-.87.09-1.02.51-.58,1.63-1.18,3.04-1.96,4.6-.21.42,0,.94.44,1.11Z"/>
    <path class="cls-1" d="M160.1,167.93c.11.43.56.68.99.57l1.54-.41c.44-.12.69-.57.57-1.01-.39-1.38-.81-2.57-1.42-3.88-.17-.35-.57-.53-.94-.43l-1.45.39c-.47.13-.73.64-.54,1.09.5,1.19.93,2.46,1.25,3.69Z"/>
    <path class="cls-1" d="M162.49,180.51v.71h.71c-.39,0-.71-.32-.71-.71Z"/>
    <path class="cls-1" d="M168.68,181.22h.71v-.71c0,.39-.32.71-.71.71Z"/>
    <path class="cls-1" d="M171.96,170.55h-1.86c-.39,0-.71.32-.71.71v6.07c-.47-.86-.89-1.53-1.43-2.32-.09-.13-.11-.29-.05-.43.52-1.43.86-2.64,1.17-4.14.04-.19-.06-.37-.24-.44-.5-.18-1.51-.54-2.08-.74-.22-.08-.46.06-.5.29-.13.72-.26,1.31-.47,2.02-.05.17-.27.22-.39.08-.43-.49-.86-.91-1.33-1.36-.15-.14-.4-.14-.54.02l-1.04,1.12v-.17c0-.39-.32-.71-.71-.71h-1.73c-.39,0-.71.32-.71.71v12.6c0,.39.32.71.71.71h11.92c.39,0,.71-.32.71-.71v-12.6c0-.39-.32-.71-.71-.71ZM164.22,174.85c.1.14.11.32.03.48-.47.89-1.08,1.83-1.76,2.57v-5.21c.6.71,1.18,1.4,1.72,2.17ZM169.4,179.97v1.25h-6.9v-2.32l.95,1.06.48.54c.15.17.42.17.57,0,.16-.18.31-.36.46-.53.45-.54.82-1.08,1.22-1.74.06-.1.21-.11.27,0,.23.36.59,1.03.83,1.47.12.22.42.27.6.09l1.52-1.48v1.69Z"/>
  </g>
  <path class="cls-1" d="M178.56,184.21l-1.49-2.25c-.17-.26-.15-.6.05-.85,1.48-1.83,2.68-3.88,3.73-5.99.21-.42.75-.54,1.11-.24l1.62,1.36c.24.2.32.54.2.83-.87,2.11-2.57,5.28-4.05,7.18-.3.39-.9.37-1.17-.04ZM182.71,171.12l-1.32,1.82c-.24.33-.71.39-1.04.14-.89-.7-1.83-1.37-2.81-1.93-.37-.21-.49-.68-.26-1.03l1.17-1.76c.2-.3.59-.41.91-.25,1.05.5,2.29,1.31,3.21,2.04.3.24.36.67.13.99ZM183.76,164.57l-1.36,1.85c-.24.33-.69.39-1.02.14-.94-.7-1.97-1.32-3.01-1.87-.39-.21-.52-.71-.26-1.07l1.25-1.72c.2-.28.57-.38.88-.24,1.22.56,2.22,1.13,3.33,1.86.34.23.43.7.19,1.03ZM194.84,167.92h5.01c.4,0,.72.32.72.72v1.98c0,.4-.32.72-.72.72h-5.01c-.4,0-.72.32-.72.72v1.46c0,.4.32.72.72.72h3.92c.4,0,.72.32.72.72v9c0,.4-.32.72-.72.72h-12.97c-.4,0-.72-.32-.72-.72v-9c0-.4.32-.72.72-.72h3.79c.4,0,.72-.32.72-.72v-1.46c0-.4-.32-.72-.72-.72h-4.91c-.4,0-.72-.32-.72-.72v-1.98c0-.4.32-.72.72-.72h4.91c.4,0,.72-.32.72-.72v-.55c0-.41-.33-.73-.74-.72-1.1.03-2.21.05-3.31.05h-.8c-.33,0-.62-.23-.7-.55l-.47-1.96c-.11-.45.23-.89.7-.89h.52c3.7,0,8.99-.16,12.7-1,.34-.08.68.09.82.4l.9,1.96c.19.42-.05.91-.49,1-1.56.33-3.07.49-4.67.65-.37.04-.65.35-.65.72v.89c0,.4.32.72.72.72ZM188.84,178.21v2.4c0,.4.32.72.72.72h5.43c.4,0,.72-.32.72-.72v-2.4c0-.4-.32-.72-.72-.72h-5.43c-.4,0-.72.32-.72.72Z"/>
</svg>