<?xml version="1.0" encoding="UTF-8"?>
<svg id="_レイヤー_1" data-name="レイヤー 1" xmlns="http://www.w3.org/2000/svg" xmlns:xlink="http://www.w3.org/1999/xlink" viewBox="0 0 388 410">
  <defs>
    <style>
      .cls-1 {
        fill: #231815;
      }

      .cls-2 {
        fill: url(#_名称未設定グラデーション_32);
      }
    </style>
    <linearGradient id="_名称未設定グラデーション_32" data-name="名称未設定グラデーション 32" x1="81.87" y1="310.59" x2="350.9" y2="41.55" gradientUnits="userSpaceOnUse">
      <stop offset=".21" stop-color="#218d49"/>
      <stop offset=".47" stop-color="#367770"/>
      <stop offset=".92" stop-color="#004299"/>
    </linearGradient>
  </defs>
  <path class="cls-2" d="M302.05,10.85c-21.04,0-39.16,14.99-43.07,35.56-1.96,8.75-.93,19.3.26,31.51,1.51,15.49,3.39,34.76-.53,56.62-4.94,27.53-13.98,60.42-40.21,70.5-9.63,3.7-21.15,2.78-30.07-2.38-17.37-10.07-17.99-34.5-15.79-45.46,3.35-16.67-4.34-33.54-18.69-41.03-8.06-4.2-16.84-5.5-25.4-3.78-7.01,1.38-12.93,4.47-18.12,9.45-10.46,10.03-14.31,25.41-10.04,40.12,8.73,30.09-1.85,48.02-31.4,57.21-18.82,5.86-30.27,25.23-26.07,44.1,2.5,11.24,9.84,20.58,20.13,25.64s22.2,5.13,32.69.21c16.63-7.8,25.04-27.38,19.57-45.56-4.35-14.44-4.66-25.77-.99-34.58.2-.46.42-.91.69-1.44l.19-.38c4.83-8.85,14.09-14.35,24.16-14.35,8.05,0,15.67,3.52,20.91,9.67,8.62,10.09,7.14,24.82,5.07,37.83-4.24,26.73,11.61,53.92,36.88,63.25,6.4,2.36,13,3.49,19.54,3.49,20.51,0,40.29-11.11,50.48-29.99,11.42-21.16,4.99-36.99-1.82-53.74-3.12-7.68-6.35-15.62-7.93-24.41-1.67-9.29-.09-20.06,4.72-32.02,8.11-20.19,21.85-36.96,34.22-50.7,4.44-4.93,9.72-9.43,15.31-14.2,12.6-10.74,25.64-21.86,28.27-38.24v-.06c.62-2.95.93-5.96.93-8.93,0-24.2-19.69-43.89-43.89-43.89Z"/>
  <path class="cls-1" d="M262.85,351.59c-3.16,20.57-15.44,32.56-35.33,37.98-.8.22-1.66-.12-2.11-.82l-3.61-5.68c-.69-1.09-.12-2.54,1.13-2.85,5.78-1.41,11.46-3.59,16.34-7.05,4.4-3.13,7.22-6.64,9.37-11.26.58-1.25-.35-2.7-1.73-2.7h-35.75c-1.05,0-1.89-.85-1.89-1.89v-5.99c0-1.05.85-1.89,1.89-1.89h49.8c1.15,0,2.06,1.03,1.89,2.17ZM256.88,336.71v6.12c0,1.05-.85,1.89-1.89,1.89h-37.63c-1.05,0-1.89-.85-1.89-1.89v-6.12c0-1.05.85-1.89,1.89-1.89h37.63c1.05,0,1.89.85,1.89,1.89Z"/>
  <path class="cls-1" d="M274.67,375.94c4.57-5.35,8.2-10.98,11.11-17.35.45-.98,1.6-1.4,2.56-.93l5.75,2.83c.91.45,1.32,1.54.91,2.47-3.11,7.06-6.93,13.32-11.86,19.3-.63.76-1.74.91-2.55.34l-5.58-3.87c-.93-.64-1.07-1.94-.34-2.8ZM330.74,345.77v6.06c0,1.05-.85,1.89-1.89,1.89h-17.86c-1.05,0-1.89.85-1.89,1.89v24c0,8.82-5.66,9.53-14.22,9.58-.88,0-1.64-.6-1.85-1.45l-1.55-6.41c-.29-1.2.63-2.37,1.87-2.34.75.02,1.5.03,2.25.03,2.22,0,3.07-.13,3.07-2.41v-21c0-1.05-.85-1.89-1.89-1.89h-19.17c-1.05,0-1.89-.85-1.89-1.89v-6.06c0-1.05.85-1.89,1.89-1.89h19.17c1.05,0,1.89-.85,1.89-1.89v-7.43c0-1.05.85-1.89,1.89-1.89h6.64c1.05,0,1.89.85,1.89,1.89v7.43c0,1.05.85,1.89,1.89,1.89h17.86c1.05,0,1.89.85,1.89,1.89ZM331.22,378.37l-5.91,3.65c-.97.6-2.23.21-2.71-.82-2.98-6.35-5.89-11.7-9.79-17.55-.6-.9-.35-2.11.57-2.68l5.4-3.31c.85-.52,1.98-.29,2.55.54,4.16,5.99,7.35,11.23,10.59,17.71.44.88.13,1.95-.7,2.47ZM318.74,329.58c2.22,2.55,3.93,5.14,5.63,8.05.51.87.27,1.97-.56,2.54l-1.48,1c-1.14.78-2.41.45-2.94-.53-1.54-2.86-2.98-5.03-5.02-7.57-.69-.86-.51-2.13.4-2.75l1.49-1.02c.78-.54,1.86-.42,2.48.29ZM329.92,329.46c2.13,2.7,3.68,5.36,5.29,8.34.49.91.17,2.05-.72,2.56l-1.76,1c-.96.54-2.17.15-2.65-.84-1.45-3-2.7-5.03-4.69-7.73-.65-.88-.43-2.14.5-2.73l1.56-.99c.81-.52,1.89-.36,2.49.39Z"/>
  <g>
    <path class="cls-1" d="M84.05,330.64h-13.91c-1.47,0-2.66,1.19-2.66,2.66v25.58c0,8.03-.34,14.76-2.89,22.26-.31.91-.13,1.92.51,2.65l2.85,3.23c1.37,1.55,3.87,1.01,4.54-.95,1.56-4.58,2.25-9.09,2.59-14.05.07-.98.88-1.76,1.86-1.76h.49c1.03,0,1.87.84,1.87,1.87v6.56c0,1.93-.19,2.25-1.74,2.25h-.33c-1.69,0-2.95,1.55-2.61,3.2l.83,4c.26,1.24,1.35,2.12,2.61,2.12h2.85c4.05,0,5.79-1.99,5.79-5.98v-50.99c0-1.47-1.19-2.66-2.66-2.66ZM79.31,359.97c0,1.03-.84,1.87-1.87,1.87h-.06c-1.03,0-1.87-.84-1.87-1.87v-3.47c0-1.03.84-1.87,1.87-1.87h.06c1.03,0,1.87.84,1.87,1.87v3.47ZM79.31,344.47c0,1.03-.84,1.87-1.87,1.87h-.06c-1.03,0-1.87-.84-1.87-1.87v-2.95c0-1.03.84-1.87,1.87-1.87h.06c1.03,0,1.87.84,1.87,1.87v2.95Z"/>
    <path class="cls-1" d="M102.98,342.53c.13,1.2,1.19,2.07,2.38,1.92l4.41-.56c1.17-.15,2.01-1.21,1.85-2.38-.45-3.46-1.3-7.53-2.41-10.78-.34-.99-1.34-1.59-2.37-1.42-1.22.2-2.89.48-4.25.71s-2.1,1.45-1.7,2.71c1.02,3.17,1.72,6.51,2.08,9.8Z"/>
    <path class="cls-1" d="M113.67,346.87l4.19,1.63c.99.39,2.13-.01,2.65-.94,2.28-4.11,4.13-8.31,5.86-12.69.45-1.14-.16-2.42-1.32-2.8-1.43-.47-3.29-1.08-4.69-1.54-1.11-.36-2.29.24-2.68,1.33-1.53,4.3-3.11,8-5.15,12.1-.56,1.12-.02,2.47,1.14,2.92Z"/>
    <path class="cls-1" d="M91.3,345.25c.29,1.13,1.47,1.79,2.6,1.49l4.06-1.08c1.16-.31,1.83-1.51,1.5-2.66-1.02-3.63-2.13-6.76-3.74-10.2-.43-.93-1.49-1.4-2.48-1.13l-3.82,1.03c-1.24.33-1.91,1.68-1.42,2.86,1.31,3.13,2.45,6.45,3.3,9.69Z"/>
    <path class="cls-1" d="M97.58,378.31v1.87h1.87c-1.03,0-1.87-.84-1.87-1.87Z"/>
    <path class="cls-1" d="M113.85,380.18h1.87v-1.87c0,1.03-.84,1.87-1.87,1.87Z"/>
    <path class="cls-1" d="M122.47,352.13h-4.89c-1.03,0-1.86.83-1.86,1.86v15.96c-1.25-2.25-2.33-4.02-3.75-6.09-.23-.33-.28-.77-.14-1.14,1.38-3.76,2.27-6.94,3.08-10.88.1-.49-.17-.98-.64-1.15-1.33-.47-3.97-1.41-5.47-1.95-.58-.21-1.21.16-1.31.76-.33,1.9-.7,3.45-1.23,5.32-.13.45-.71.57-1.02.22-1.14-1.29-2.27-2.4-3.51-3.56-.4-.38-1.04-.36-1.42.05l-2.73,2.93v-.44c0-1.03-.84-1.87-1.87-1.87h-4.56c-1.03,0-1.87.84-1.87,1.87v33.12c0,1.03.84,1.87,1.87,1.87h31.32c1.03,0,1.87-.84,1.87-1.87v-33.12c0-1.03-.84-1.87-1.87-1.87ZM102.11,363.42c.26.37.3.85.09,1.25-1.25,2.33-2.85,4.81-4.62,6.76v-13.7c1.58,1.87,3.11,3.69,4.53,5.7ZM115.72,376.89v3.29h-18.14v-6.11l2.5,2.79,1.27,1.41c.4.44,1.09.44,1.49,0,.43-.48.82-.94,1.2-1.4,1.18-1.43,2.16-2.83,3.22-4.59.16-.26.55-.29.71-.02.59.96,1.54,2.7,2.17,3.86.31.58,1.1.7,1.58.24l4-3.9v4.43Z"/>
  </g>
  <path class="cls-1" d="M139.81,388.04l-3.91-5.93c-.45-.69-.4-1.58.12-2.23,3.89-4.8,7.04-10.19,9.8-15.73.55-1.1,1.97-1.41,2.92-.62l4.27,3.57c.64.54.85,1.42.53,2.19-2.28,5.53-6.75,13.87-10.63,18.87-.8,1.03-2.37.98-3.09-.11ZM150.72,353.63l-3.46,4.77c-.64.88-1.87,1.03-2.72.36-2.34-1.85-4.8-3.59-7.39-5.07-.97-.55-1.29-1.78-.68-2.71l3.06-4.64c.52-.79,1.55-1.08,2.4-.67,2.76,1.32,6.02,3.45,8.44,5.35.8.63.95,1.77.35,2.6ZM153.48,336.42l-3.56,4.87c-.63.86-1.83,1.01-2.68.38-2.48-1.84-5.17-3.47-7.91-4.91-1.03-.54-1.36-1.86-.68-2.8l3.27-4.52c.53-.73,1.5-.99,2.32-.62,3.2,1.47,5.83,2.96,8.74,4.9.9.6,1.14,1.83.49,2.71ZM182.62,345.21h13.17c1.05,0,1.89.85,1.89,1.89v5.21c0,1.05-.85,1.89-1.89,1.89h-13.17c-1.05,0-1.89.85-1.89,1.89v3.84c0,1.05.85,1.89,1.89,1.89h10.3c1.05,0,1.89.85,1.89,1.89v23.67c0,1.05-.85,1.89-1.89,1.89h-34.1c-1.05,0-1.89-.85-1.89-1.89v-23.67c0-1.05.85-1.89,1.89-1.89h9.97c1.05,0,1.89-.85,1.89-1.89v-3.84c0-1.05-.85-1.89-1.89-1.89h-12.91c-1.05,0-1.89-.85-1.89-1.89v-5.21c0-1.05.85-1.89,1.89-1.89h12.91c1.05,0,1.89-.85,1.89-1.89v-1.44c0-1.07-.87-1.91-1.94-1.88-2.89.09-5.81.13-8.69.13h-2.1c-.88,0-1.64-.6-1.84-1.45l-1.24-5.15c-.29-1.19.62-2.34,1.84-2.34h1.38c9.73,0,23.63-.41,33.39-2.63.88-.2,1.78.23,2.15,1.05l2.36,5.14c.5,1.09-.12,2.39-1.3,2.64-4.1.86-8.08,1.28-12.27,1.71-.97.1-1.7.91-1.7,1.89v2.33c0,1.05.85,1.89,1.89,1.89ZM166.83,372.28v6.32c0,1.05.85,1.89,1.89,1.89h14.28c1.05,0,1.89-.85,1.89-1.89v-6.32c0-1.05-.85-1.89-1.89-1.89h-14.28c-1.05,0-1.89.85-1.89,1.89Z"/>
</svg>