<?xml version="1.0" encoding="UTF-8"?>
<svg id="_レイヤー_1" data-name="レイヤー 1" xmlns="http://www.w3.org/2000/svg" xmlns:xlink="http://www.w3.org/1999/xlink" viewBox="0 0 360 100">
  <defs>
    <style>
      .cls-1 {
        fill: #231815;
      }

      .cls-2 {
        fill: url(#_名称未設定グラデーション_32);
      }
    </style>
    <linearGradient id="_名称未設定グラデーション_32" data-name="名称未設定グラデーション 32" x1="25.63" y1="84.15" x2="86.22" y2="23.56" gradientUnits="userSpaceOnUse">
      <stop offset=".21" stop-color="#218d49"/>
      <stop offset=".47" stop-color="#367770"/>
      <stop offset=".92" stop-color="#004299"/>
    </linearGradient>
  </defs>
  <path class="cls-2" d="M75.22,16.65c-4.74,0-8.82,3.38-9.7,8.01-.44,1.97-.21,4.35.06,7.1.34,3.49.76,7.83-.12,12.75-1.11,6.2-3.15,13.61-9.05,15.88-2.17.83-4.76.63-6.77-.54-3.91-2.27-4.05-7.77-3.55-10.24.75-3.75-.98-7.55-4.21-9.24-1.81-.95-3.79-1.24-5.72-.85-1.58.31-2.91,1.01-4.08,2.13-2.36,2.26-3.22,5.72-2.26,9.04,1.97,6.78-.42,10.81-7.07,12.88-4.24,1.32-6.82,5.68-5.87,9.93.56,2.53,2.22,4.63,4.53,5.77s5,1.15,7.36.05c3.74-1.76,5.64-6.17,4.41-10.26-.98-3.25-1.05-5.8-.22-7.79.05-.1.09-.21.16-.33l.04-.08c1.09-1.99,3.17-3.23,5.44-3.23,1.81,0,3.53.79,4.71,2.18,1.94,2.27,1.61,5.59,1.14,8.52-.96,6.02,2.62,12.14,8.31,14.24,1.44.53,2.93.79,4.4.79,4.62,0,9.07-2.5,11.37-6.75,2.57-4.76,1.12-8.33-.41-12.1-.7-1.73-1.43-3.52-1.79-5.5-.38-2.09-.02-4.52,1.06-7.21,1.83-4.55,4.92-8.32,7.71-11.42,1-1.11,2.19-2.12,3.45-3.2,2.84-2.42,5.77-4.92,6.37-8.61h0c.14-.68.21-1.35.21-2.02,0-5.45-4.43-9.88-9.88-9.88Z"/>
  <path class="cls-1" d="M277.05,45.68c-2.7,17.56-13.18,27.8-30.16,32.42-.68.19-1.42-.1-1.8-.7l-3.09-4.85c-.59-.93-.1-2.17.96-2.43,4.93-1.2,9.78-3.06,13.95-6.02,3.76-2.68,6.17-5.67,8-9.61.5-1.07-.3-2.3-1.48-2.3h-30.52c-.89,0-1.62-.72-1.62-1.62v-5.12c0-.89.72-1.62,1.62-1.62h42.51c.98,0,1.76.88,1.61,1.85ZM271.96,32.98v5.23c0,.89-.72,1.62-1.62,1.62h-32.12c-.89,0-1.62-.72-1.62-1.62v-5.23c0-.89.72-1.62,1.62-1.62h32.12c.89,0,1.62.72,1.62,1.62Z"/>
  <path class="cls-1" d="M287.14,66.47c3.9-4.57,7-9.38,9.49-14.81.38-.83,1.36-1.2,2.18-.79l4.91,2.42c.77.38,1.12,1.31.77,2.11-2.65,6.03-5.92,11.37-10.12,16.48-.53.65-1.49.77-2.18.29l-4.76-3.3c-.79-.55-.92-1.65-.29-2.39ZM335.01,40.71v5.17c0,.89-.72,1.62-1.62,1.62h-15.25c-.89,0-1.62.72-1.62,1.62v20.49c0,7.53-4.83,8.14-12.14,8.18-.75,0-1.4-.51-1.58-1.24l-1.33-5.47c-.25-1.03.54-2.02,1.59-2,.64.01,1.28.03,1.92.03,1.89,0,2.62-.11,2.62-2.06v-17.93c0-.89-.72-1.62-1.62-1.62h-16.37c-.89,0-1.62-.72-1.62-1.62v-5.17c0-.89.72-1.62,1.62-1.62h16.37c.89,0,1.62-.72,1.62-1.62v-6.34c0-.89.72-1.62,1.62-1.62h5.67c.89,0,1.62.72,1.62,1.62v6.34c0,.89.72,1.62,1.62,1.62h15.25c.89,0,1.62.72,1.62,1.62ZM335.42,68.55l-5.05,3.11c-.82.51-1.9.18-2.32-.7-2.55-5.42-5.03-9.98-8.36-14.98-.51-.77-.3-1.81.49-2.29l4.61-2.83c.73-.45,1.69-.24,2.18.46,3.55,5.12,6.27,9.59,9.04,15.12.37.75.11,1.67-.6,2.11ZM324.77,26.89c1.89,2.17,3.35,4.39,4.81,6.87.43.74.23,1.68-.48,2.16l-1.26.86c-.97.66-2.06.39-2.51-.46-1.32-2.45-2.54-4.29-4.28-6.46-.59-.73-.44-1.82.34-2.35l1.27-.87c.67-.46,1.58-.36,2.12.25ZM334.31,26.79c1.82,2.31,3.14,4.57,4.52,7.12.42.78.15,1.75-.62,2.18l-1.5.86c-.82.46-1.85.13-2.26-.72-1.24-2.56-2.3-4.3-4.01-6.6-.56-.75-.37-1.83.42-2.33l1.33-.85c.69-.44,1.62-.31,2.12.34Z"/>
  <g>
    <path class="cls-1" d="M124.41,27.8h-11.87c-1.26,0-2.27,1.02-2.27,2.27v21.84c0,6.86-.29,12.6-2.46,19-.26.78-.11,1.64.43,2.26l2.44,2.76c1.17,1.32,3.31.86,3.88-.81,1.33-3.91,1.92-7.76,2.22-11.99.06-.84.75-1.5,1.59-1.5h.42c.88,0,1.6.71,1.6,1.6v5.6c0,1.65-.16,1.92-1.48,1.92h-.28c-1.44,0-2.52,1.32-2.23,2.74l.71,3.41c.22,1.06,1.15,1.81,2.23,1.81h2.43c3.46,0,4.94-1.7,4.94-5.11V30.07c0-1.26-1.02-2.27-2.27-2.27ZM120.37,52.84c0,.88-.71,1.6-1.6,1.6h-.05c-.88,0-1.6-.71-1.6-1.6v-2.96c0-.88.71-1.6,1.6-1.6h.05c.88,0,1.6.71,1.6,1.6v2.96ZM120.37,39.6c0,.88-.71,1.6-1.6,1.6h-.05c-.88,0-1.6-.71-1.6-1.6v-2.52c0-.88.71-1.6,1.6-1.6h.05c.88,0,1.6.71,1.6,1.6v2.52Z"/>
    <path class="cls-1" d="M140.58,37.95c.11,1.02,1.01,1.77,2.04,1.64l3.77-.47c1-.13,1.71-1.04,1.58-2.03-.39-2.95-1.11-6.42-2.06-9.2-.29-.85-1.14-1.36-2.02-1.21-1.05.17-2.46.41-3.63.61s-1.8,1.24-1.45,2.31c.87,2.7,1.46,5.56,1.78,8.36Z"/>
    <path class="cls-1" d="M149.7,41.65l3.57,1.39c.85.33,1.82-.01,2.26-.8,1.94-3.51,3.52-7.09,5-10.83.38-.97-.13-2.07-1.12-2.39-1.22-.4-2.81-.92-4-1.32-.94-.31-1.95.2-2.28,1.14-1.3,3.67-2.65,6.83-4.39,10.33-.47.95-.02,2.11.98,2.49Z"/>
    <path class="cls-1" d="M130.6,40.27c.25.96,1.26,1.53,2.22,1.27l3.46-.92c.99-.26,1.56-1.29,1.28-2.27-.87-3.09-1.82-5.77-3.19-8.71-.37-.79-1.27-1.2-2.11-.97l-3.26.88c-1.06.28-1.63,1.43-1.21,2.44,1.11,2.67,2.09,5.51,2.81,8.28Z"/>
    <path class="cls-1" d="M135.97,68.49v1.6h1.6c-.88,0-1.6-.71-1.6-1.6Z"/>
    <path class="cls-1" d="M149.86,70.09h1.6v-1.6c0,.88-.71,1.6-1.6,1.6Z"/>
    <path class="cls-1" d="M157.22,46.14h-4.17c-.88,0-1.59.71-1.59,1.59v13.62c-1.06-1.92-1.99-3.43-3.2-5.2-.19-.28-.24-.65-.12-.97,1.17-3.21,1.93-5.93,2.63-9.29.09-.42-.14-.84-.54-.98-1.13-.4-3.39-1.21-4.67-1.67-.5-.18-1.03.13-1.12.65-.28,1.62-.59,2.94-1.05,4.54-.11.38-.61.48-.87.18-.97-1.1-1.94-2.05-2.99-3.04-.34-.32-.89-.31-1.21.04l-2.33,2.5v-.38c0-.88-.71-1.6-1.6-1.6h-3.89c-.88,0-1.6.71-1.6,1.6v28.28c0,.88.71,1.6,1.6,1.6h26.74c.88,0,1.6-.71,1.6-1.6v-28.28c0-.88-.71-1.6-1.6-1.6ZM139.84,55.78c.22.31.25.73.07,1.07-1.06,1.99-2.43,4.11-3.94,5.77v-11.7c1.35,1.6,2.65,3.15,3.87,4.86ZM151.46,67.28v2.81h-15.49v-5.22l2.14,2.38,1.08,1.21c.34.38.93.37,1.28,0,.37-.41.7-.8,1.02-1.19,1.01-1.22,1.85-2.42,2.75-3.91.14-.23.47-.24.61-.02.51.82,1.32,2.3,1.85,3.3.27.5.94.6,1.34.21l3.42-3.33v3.78Z"/>
  </g>
  <path class="cls-1" d="M172.01,76.79l-3.34-5.06c-.39-.59-.34-1.35.1-1.9,3.32-4.1,6.01-8.7,8.36-13.43.47-.94,1.68-1.21,2.49-.53l3.64,3.05c.55.46.73,1.21.45,1.87-1.95,4.72-5.76,11.84-9.08,16.11-.68.88-2.02.84-2.64-.09ZM181.33,47.42l-2.95,4.08c-.54.75-1.6.88-2.32.31-2-1.58-4.1-3.07-6.31-4.33-.82-.47-1.1-1.52-.58-2.31l2.62-3.96c.45-.68,1.32-.92,2.05-.57,2.35,1.13,5.14,2.94,7.2,4.57.68.54.81,1.51.3,2.22ZM183.68,32.73l-3.04,4.16c-.54.73-1.56.86-2.29.32-2.12-1.57-4.41-2.97-6.75-4.19-.88-.46-1.16-1.59-.58-2.39l2.8-3.86c.45-.62,1.28-.85,1.98-.53,2.74,1.26,4.98,2.53,7.46,4.18.77.51.97,1.56.42,2.31ZM208.56,40.23h11.24c.89,0,1.62.72,1.62,1.62v4.45c0,.89-.72,1.62-1.62,1.62h-11.24c-.89,0-1.62.72-1.62,1.62v3.28c0,.89.72,1.62,1.62,1.62h8.79c.89,0,1.62.72,1.62,1.62v20.21c0,.89-.72,1.62-1.62,1.62h-29.11c-.89,0-1.62-.72-1.62-1.62v-20.21c0-.89.72-1.62,1.62-1.62h8.51c.89,0,1.62-.72,1.62-1.62v-3.28c0-.89-.72-1.62-1.62-1.62h-11.02c-.89,0-1.62-.72-1.62-1.62v-4.45c0-.89.72-1.62,1.62-1.62h11.02c.89,0,1.62-.72,1.62-1.62v-1.23c0-.91-.75-1.63-1.66-1.61-2.47.07-4.96.11-7.42.11h-1.79c-.75,0-1.4-.51-1.57-1.24l-1.06-4.39c-.24-1.02.53-2,1.57-2h1.18c8.31,0,20.18-.35,28.5-2.25.75-.17,1.52.19,1.84.9l2.01,4.39c.43.93-.11,2.04-1.11,2.25-3.5.74-6.89,1.09-10.47,1.46-.82.09-1.45.78-1.45,1.61v1.99c0,.89.72,1.62,1.62,1.62ZM195.08,63.34v5.39c0,.89.72,1.62,1.62,1.62h12.19c.89,0,1.62-.72,1.62-1.62v-5.39c0-.89-.72-1.62-1.62-1.62h-12.19c-.89,0-1.62.72-1.62,1.62Z"/>
</svg>