<?xml version="1.0" encoding="UTF-8"?>
<svg id="_レイヤー_1" data-name="レイヤー 1" xmlns="http://www.w3.org/2000/svg" xmlns:xlink="http://www.w3.org/1999/xlink" viewBox="0 0 512 512">
  <defs>
    <style>
      .cls-1 {
        fill: url(#_名称未設定グラデーション_2);
      }

      .cls-2 {
        fill: #fff;
      }
    </style>
    <linearGradient id="_名称未設定グラデーション_2" data-name="名称未設定グラデーション 2" x1="503.16" y1="236.13" x2="186.98" y2="-53.22" gradientTransform="translate(-41.5 349) scale(1 -1)" gradientUnits="userSpaceOnUse">
      <stop offset=".37" stop-color="#1c52a4"/>
      <stop offset=".75" stop-color="#069559"/>
      <stop offset="1" stop-color="#049a54"/>
    </linearGradient>
  </defs>
  <rect class="cls-2" width="512" height="512"/>
  <path class="cls-1" d="M375.22,93.96c-11.18,0-22.01,3.9-30.63,11.02-8.62,7.12-14.49,17.02-16.61,28-2.15,9.59-1,21.16.29,34.55,1.65,17.01,3.71,38.26-.59,62.12-5.41,30.28-15.24,66.27-44.06,77.37-5.35,1.98-11.07,2.77-16.76,2.31-5.69-.46-11.21-2.15-16.18-4.96-19.06-11.07-19.74-37.85-17.33-50.03,1.45-6.68,1.22-13.63-.68-20.2-1.9-6.57-5.41-12.57-10.2-17.44-4.79-4.88-10.73-8.48-17.27-10.49-6.54-2.01-13.47-2.36-20.18-1.01-7.51,1.41-14.43,5.02-19.88,10.36-5.71,5.64-9.75,12.74-11.69,20.53-1.94,7.79-1.7,15.96.69,23.62,9.56,32.99-2.03,52.65-34.42,62.74-9.93,3.05-18.37,9.7-23.66,18.65-5.29,8.95-7.05,19.55-4.93,29.73,1.33,6.06,4.01,11.73,7.85,16.61,3.83,4.87,8.71,8.82,14.28,11.55,5.57,2.72,11.68,4.16,17.88,4.19,6.2.03,12.32-1.34,17.92-4,8.95-4.41,16.03-11.88,19.96-21.05,3.93-9.17,4.46-19.45,1.48-28.98-4.77-15.83-5.09-28.28-1.06-37.93.21-.5.44-1,.74-1.59l.21-.41c2.34-4.3,5.68-7.97,9.75-10.68,4.07-2.71,8.74-4.4,13.61-4.9,4.87-.5,9.78.18,14.32,2.01,4.54,1.82,8.57,4.72,11.74,8.45,9.47,11.07,7.82,27.22,5.59,41.49-2.15,14.44.69,29.18,8.03,41.79,7.35,12.61,18.77,22.35,32.38,27.6,6.86,2.53,14.11,3.83,21.41,3.83,11.33,0,22.45-3.06,32.19-8.85,9.74-5.79,17.74-14.1,23.17-24.05,12.5-23.22,5.47-40.58-2-58.86-3.87-8.6-6.82-17.57-8.82-26.78-1.82-10.18,0-22.01,5.18-35.14,8.82-22.16,23.97-40.55,37.5-55.62,5.26-5.54,10.87-10.74,16.8-15.57,13.83-11.77,28.12-23.98,31-41.97,1.47-7,1.36-14.24-.32-21.2-1.68-6.95-4.9-13.44-9.41-19-4.51-5.55-10.2-10.03-16.66-13.1-6.46-3.07-13.52-4.66-20.67-4.65l.06-.06Z"/>
</svg>